<?xml version="1.0" encoding="UTF-8" standalone="no"?>
<!DOCTYPE svg PUBLIC "-//W3C//DTD SVG 1.1//EN" "http://www.w3.org/Graphics/SVG/1.1/DTD/svg11.dtd">
<svg width="100%" height="100%" viewBox="0 0 812 849" version="1.1" xmlns="http://www.w3.org/2000/svg" xmlns:xlink="http://www.w3.org/1999/xlink" xml:space="preserve" xmlns:serif="http://www.serif.com/" style="fill-rule:evenodd;clip-rule:evenodd;stroke-linejoin:round;stroke-miterlimit:2;">
    <g id="asteroid" transform="matrix(4.16667,0,0,4.16667,-1022.2,48.6637)">
        <path d="M394.134,63.635C394.009,63.796 393.848,63.945 393.648,63.987C393.38,64.044 393.103,63.89 392.937,63.673C392.273,62.8 391.985,60.151 392.319,59.072C392.839,57.389 393.955,59.279 394.257,60.166C394.645,61.309 394.874,62.681 394.134,63.635ZM390.483,127.905C391.006,127.968 391.548,127.97 392.046,127.799C392.545,127.628 392.996,127.264 393.175,126.768C393.321,126.362 393.249,125.923 393.063,125.529C393.315,125.648 393.556,125.787 393.765,125.973C394.299,126.448 394.613,127.227 394.371,127.9C394.192,128.396 393.741,128.76 393.242,128.931C392.744,129.102 392.202,129.1 391.678,129.036C390.657,128.912 388.85,128.019 388.31,127.043C389.033,127.499 389.89,127.832 390.483,127.905ZM396.095,138.804C395.216,140.682 392.72,141.682 390.867,140.752C390.337,140.486 389.881,140.094 389.452,139.684C388.539,138.813 386.941,137.466 386.599,136.189C386.581,136.121 386.582,136.056 386.569,135.988C387.088,136.533 387.646,137.034 388.063,137.432C388.492,137.841 388.948,138.233 389.478,138.499C391.332,139.429 393.827,138.429 394.706,136.551C395.159,135.583 395.186,134.475 394.89,133.449C396.332,134.779 396.926,137.026 396.095,138.804ZM396.984,140.406C397.187,140.201 397.292,140.067 397.292,140.067C397.292,140.067 397.252,140.23 397.146,140.509C397.026,140.778 396.849,141.183 396.503,141.577C396.158,141.962 395.711,142.41 395.112,142.713C394.519,143.019 393.823,143.234 393.097,143.297C392.369,143.312 391.654,143.171 391.032,142.93C390.405,142.69 389.913,142.294 389.528,141.948C389.143,141.592 388.923,141.21 388.775,140.955C388.64,140.688 388.583,140.531 388.583,140.531C388.583,140.531 388.701,140.653 388.925,140.836C389.13,141.034 389.472,141.26 389.866,141.51C390.264,141.762 390.776,141.954 391.314,142.123C391.855,142.291 392.458,142.364 393.045,142.313C393.634,142.301 394.226,142.164 394.746,141.939C395.261,141.712 395.751,141.469 396.119,141.176C396.484,140.885 396.801,140.625 396.984,140.406ZM402.04,84.538C401.914,84.801 401.744,85.057 401.491,85.201C401.273,85.326 401.012,85.356 400.761,85.35C399.518,85.32 398.38,84.398 398.001,83.217C398.507,83.644 399.141,83.915 399.804,83.93C400.056,83.936 400.316,83.906 400.534,83.782C400.787,83.637 400.957,83.381 401.083,83.118C401.513,82.217 401.517,81.173 401.416,80.179C401.302,79.058 401.059,77.952 400.704,76.883C400.946,76.851 401.173,76.997 401.352,77.446C401.883,78.774 402.227,80.176 402.372,81.599C402.474,82.592 402.47,83.636 402.04,84.538ZM408.507,101.087C408.076,103.397 408.198,105.783 407.756,108.091C407.314,110.398 406.134,112.767 403.987,113.72C403.643,113.872 403.261,113.986 402.894,113.907C402.395,113.8 402.026,113.349 401.875,112.862C401.794,112.602 401.766,112.332 401.762,112.06C401.873,112.129 401.992,112.182 402.122,112.21C402.49,112.289 402.872,112.175 403.215,112.023C405.363,111.07 406.542,108.701 406.984,106.393C407.426,104.086 407.305,101.699 407.736,99.39C407.794,99.076 407.858,98.755 407.881,98.437C408.202,98.622 408.464,98.912 408.593,99.359C408.754,99.919 408.614,100.514 408.507,101.087ZM408.974,108.25C409.119,107.509 409.279,106.808 409.364,106.197C409.452,105.586 409.571,105.074 409.626,104.714C409.702,104.355 409.745,104.15 409.745,104.15C409.745,104.15 409.771,104.358 409.817,104.722C409.842,105.086 409.916,105.608 409.916,106.236C409.911,106.863 409.932,107.605 409.817,108.395C409.703,109.184 409.517,110.026 409.226,110.845C408.887,111.653 408.434,112.407 407.914,113.041C407.398,113.681 406.759,114.132 406.203,114.465C405.64,114.798 405.1,114.92 404.739,114.994C404.37,115.052 404.161,115.056 404.161,115.056C404.161,115.056 404.36,114.982 404.678,114.811C405.005,114.665 405.429,114.376 405.89,114.006C406.357,113.635 406.804,113.103 407.238,112.515C407.673,111.924 408.042,111.224 408.306,110.489C408.61,109.762 408.826,108.99 408.974,108.25ZM409.321,98.013C409.334,97.804 409.344,97.576 409.353,97.341C409.711,97.44 410.109,97.078 410.315,96.724C411.126,95.328 411.272,93.663 411.367,92.045C411.626,92.218 411.796,92.644 411.754,93.388C411.657,95.087 411.54,96.857 410.685,98.328C410.454,98.725 409.982,99.137 409.594,98.891C409.321,98.719 409.302,98.335 409.321,98.013ZM378.389,112.534C378.844,113.205 379.96,113.321 380.732,112.796C381.105,112.542 381.428,112.191 381.562,111.761C381.586,111.685 381.594,111.605 381.604,111.526C381.809,111.832 381.859,112.24 381.748,112.597C381.613,113.027 381.29,113.379 380.917,113.632C379.894,114.329 378.267,113.903 378.389,112.534ZM369.82,133.879C369.745,134.454 369.578,135.033 369.226,135.495C368.874,135.956 368.312,136.284 367.733,136.249C367.078,136.21 366.526,135.73 366.164,135.183C365.916,134.806 365.674,134.104 365.55,133.357C365.577,133.405 365.603,133.455 365.63,133.496C365.991,134.043 366.543,134.523 367.198,134.562C367.777,134.597 368.339,134.269 368.691,133.808C369.043,133.346 369.211,132.767 369.285,132.192C369.314,131.972 369.327,131.747 369.323,131.523C369.822,132.172 369.927,133.06 369.82,133.879ZM370.026,137.638C369.949,137.772 369.846,137.994 369.64,138.182C369.434,138.362 369.18,138.596 368.841,138.719C368.506,138.844 368.124,138.925 367.731,138.935C367.339,138.899 366.963,138.795 366.638,138.648C366.308,138.502 366.068,138.254 365.875,138.061C365.681,137.86 365.592,137.633 365.523,137.494C365.469,137.341 365.448,137.254 365.448,137.254C365.448,137.254 365.526,137.301 365.666,137.367C365.79,137.448 365.998,137.517 366.206,137.617C366.415,137.72 366.684,137.771 366.941,137.848C367.201,137.925 367.486,137.962 367.762,137.949C368.038,137.979 368.325,137.96 368.589,137.9C368.849,137.837 369.121,137.806 369.337,137.715C369.55,137.629 369.763,137.574 369.891,137.501C370.035,137.445 370.117,137.402 370.117,137.402C370.117,137.402 370.09,137.488 370.026,137.638ZM368.083,155.023C368.266,154.922 368.446,154.802 368.565,154.63C368.588,154.595 368.593,154.551 368.61,154.512C368.625,154.514 368.641,154.515 368.656,154.517C368.93,154.555 369.242,154.625 369.371,154.87C369.469,155.055 369.424,155.29 369.305,155.463C369.187,155.635 369.007,155.755 368.824,155.856C367.997,156.314 366.431,156.735 365.623,155.987C365.405,155.785 365.334,155.598 365.355,155.428C366.204,155.748 367.396,155.403 368.083,155.023ZM371.543,136.624C371.627,136.611 371.703,136.565 371.772,136.515C372.121,136.262 372.361,135.863 372.42,135.436C372.439,135.294 372.431,135.153 372.409,135.016C372.678,135.274 372.854,135.725 372.791,136.18C372.732,136.607 372.493,137.006 372.143,137.259C372.074,137.309 371.999,137.354 371.915,137.368C371.545,137.428 371.314,137.003 371.211,136.513C371.307,136.593 371.414,136.645 371.543,136.624ZM370.953,113.731C371.12,113.791 371.377,113.824 371.654,113.893C371.932,113.964 372.267,113.975 372.604,114.015C372.943,114.054 373.307,114.049 373.659,113.996C374.015,113.985 374.373,113.924 374.7,113.825C375.023,113.722 375.352,113.654 375.612,113.533C375.871,113.416 376.119,113.337 376.272,113.249C376.44,113.172 376.535,113.128 376.535,113.128C376.535,113.128 376.487,113.224 376.402,113.391C376.299,113.541 376.16,113.785 375.916,113.998C375.673,114.205 375.379,114.468 374.997,114.628C374.619,114.791 374.191,114.915 373.748,114.978C373.301,114.996 372.857,114.95 372.456,114.857C372.052,114.767 371.715,114.563 371.439,114.403C371.161,114.237 370.98,114.023 370.852,113.893C370.738,113.745 370.673,113.659 370.673,113.659C370.673,113.659 370.775,113.686 370.953,113.731ZM376.742,111.565C376.206,112.419 375.281,113.047 374.274,113.123C372.748,113.236 371.586,112.014 371.41,110.662C371.925,111.388 372.766,111.88 373.76,111.806C374.766,111.731 375.691,111.103 376.228,110.248C376.646,109.582 376.842,108.78 376.784,107.996C377.062,108.302 377.251,108.719 377.298,109.271C377.366,110.069 377.167,110.887 376.742,111.565ZM371.079,157.422C372.591,158.33 375.257,157.739 376.811,157.271C377.014,157.21 377.23,157.124 377.404,157.001C377.427,157.014 377.452,157.02 377.474,157.033C377.842,157.247 378.211,157.612 378.131,158.03C378.053,158.433 377.606,158.636 377.212,158.755C375.628,159.232 372.882,159.846 371.387,158.861C370.481,158.264 370.581,157.789 371.079,157.422ZM370.857,166.81C370.857,166.81 370.682,166.936 370.376,167.157C370.059,167.358 369.612,167.675 369.023,167.948C368.44,168.23 367.745,168.549 366.964,168.785C366.181,169.013 365.331,169.206 364.471,169.352C363.603,169.44 362.732,169.479 361.917,169.468C361.101,169.445 360.347,169.325 359.709,169.208C359.069,169.1 358.554,168.915 358.195,168.805C357.841,168.674 357.639,168.599 357.639,168.599C357.639,168.599 357.854,168.606 358.23,168.618C358.601,168.648 359.137,168.641 359.767,168.657C360.396,168.691 361.132,168.628 361.91,168.612C362.69,168.582 363.519,168.501 364.339,168.374C365.163,168.278 365.983,168.136 366.743,167.958C367.497,167.763 368.223,167.631 368.821,167.431C369.423,167.247 369.942,167.113 370.292,166.985C370.652,166.874 370.857,166.81 370.857,166.81ZM369.033,166.205C367.444,166.75 365.805,167.149 364.144,167.399C362.685,167.619 361.209,167.723 359.733,167.71C358.825,167.702 357.408,167.693 356.699,167.002C356.309,166.623 356.428,166.24 356.813,165.877C357.531,166.119 358.416,166.13 359.054,166.136C360.53,166.149 362.006,166.045 363.465,165.826C365.127,165.576 366.765,165.176 368.354,164.631C368.872,164.453 369.396,164.252 369.849,163.951C370.228,164.102 370.59,164.291 370.928,164.531C371.018,164.595 371.112,164.671 371.139,164.779C371.179,164.936 371.062,165.087 370.944,165.198C370.416,165.695 369.72,165.969 369.033,166.205ZM334.388,165.308C333.282,164.44 335.816,163.738 336.335,163.532C336.618,163.42 336.908,163.307 337.212,163.298C337.517,163.289 337.843,163.406 338.003,163.665C338.146,163.896 338.131,164.201 338.011,164.444C337.892,164.688 337.682,164.876 337.454,165.022C336.812,165.431 335.087,165.856 334.388,165.308ZM288.331,142.544C288.078,141.433 287.829,140.216 287.587,138.929C287.441,138.108 287.291,137.262 287.139,136.404C286.999,135.537 286.858,134.658 286.716,133.778C286.575,132.889 286.435,132.001 286.296,131.124C286.157,130.244 286.02,129.377 285.888,128.536C285.617,126.85 285.352,125.257 285.094,123.868C284.827,122.479 284.588,121.294 284.391,120.452C284.199,119.61 284.048,119.114 284.048,119.114C284.048,119.114 283.775,119.553 283.419,120.355C283.056,121.155 282.616,122.322 282.248,123.762C282.167,124.087 282.091,124.429 282.02,124.779C281.131,122.821 280.139,120.846 278.987,118.802C275.16,112.012 272.444,105.47 268.618,98.064C268.104,97.071 267.703,96.167 267.382,95.323C267.1,94.001 266.822,92.549 266.758,91.112C266.717,90.336 266.752,89.569 266.853,88.822C266.961,88.082 267.136,87.31 267.402,86.506C267.642,85.696 267.973,84.865 268.296,83.999C268.629,83.132 268.958,82.278 269.276,81.449C269.907,79.771 270.499,78.198 271.012,76.832C271.506,75.447 271.92,74.261 272.189,73.404C272.463,72.551 272.595,72.03 272.595,72.03C272.595,72.03 272.125,72.289 271.396,72.834C270.662,73.374 269.669,74.206 268.598,75.321C268.163,75.779 267.717,76.296 267.271,76.846C266.879,76.232 266.459,75.33 266.149,73.623C265.161,68.191 266.272,59.797 268.988,55.724C269.108,55.543 269.204,55.384 269.302,55.222C269.602,56.006 269.891,56.695 270.145,57.281C270.807,58.799 271.253,59.64 271.253,59.64C271.253,59.64 271.22,58.685 271.093,57.046C270.982,55.408 270.759,53.079 270.723,50.377C270.691,47.683 270.893,44.61 271.928,41.715C272.444,40.262 273.174,38.803 274.032,37.324C274.901,35.851 275.885,34.349 276.913,32.808C277.922,31.246 278.892,29.764 279.904,28.468C280.926,27.16 281.989,26.12 283.226,25.251C285.7,23.506 288.713,22.464 291.315,21.491C293.936,20.525 296.167,19.603 297.627,18.779C298.359,18.364 298.917,18.024 299.28,17.758C299.643,17.5 299.837,17.362 299.837,17.362C299.837,17.362 299.603,17.409 299.167,17.497C298.74,17.598 298.1,17.706 297.304,17.852C296.293,18.024 295.014,18.18 293.507,18.361C292.988,18.711 292.505,19.006 292.081,19.238C291.424,19.642 290.87,19.857 290.517,20.038C290.158,20.208 289.973,20.296 289.973,20.296C289.973,20.296 290.154,20.2 290.505,20.013C290.849,19.816 291.39,19.577 292.027,19.146C293.339,18.355 295.132,16.972 297.047,14.855C298.019,13.807 298.976,12.543 300.235,11.305C300.876,10.707 301.603,10.081 302.542,9.73C302.759,9.613 303.021,9.571 303.272,9.503C303.528,9.431 303.783,9.378 304.017,9.375C304.496,9.344 304.984,9.312 305.479,9.28C307.38,9.072 309.294,8.114 311.394,7.294C313.49,6.453 315.779,5.732 318.209,5.2C323.056,4.135 328.479,3.678 334.125,3.658C336.968,3.653 339.908,3.789 342.888,4.246C345.879,4.678 348.846,5.539 351.791,6.545C354.82,7.706 357.487,9.326 360.243,10.935C362.973,12.569 365.684,14.289 368.403,16.042C371.122,17.806 373.832,19.57 376.568,21.418C377.929,22.37 379.308,23.329 380.537,24.625C381.133,25.285 381.72,26.011 382.119,26.844C382.532,27.661 382.821,28.508 383.044,29.315C383.878,32.56 384.752,35.534 386.022,38.565C387.227,41.526 388.694,44.388 390.454,47.009C392.183,49.662 394.273,52.007 396.402,54.357C397.466,55.544 398.523,56.727 399.473,58.107C399.896,58.755 400.316,59.401 400.736,60.045C401.152,60.663 401.61,61.24 402.089,61.804C402.568,62.368 403.101,62.908 403.623,63.543C404.149,64.173 404.612,64.93 404.916,65.697C405.544,67.233 405.744,68.807 405.984,70.222C406.104,70.926 406.257,71.614 406.477,72.223C406.702,72.849 406.981,73.288 407.464,73.735C407.968,74.191 408.578,74.754 409.039,75.365C409.521,75.971 409.89,76.62 410.255,77.28C412.606,82.38 415.592,86.779 417.844,91.22C418.415,92.322 418.917,93.443 419.344,94.572C419.442,94.86 419.539,95.146 419.637,95.43C419.714,95.734 419.791,96.036 419.868,96.337C419.945,96.64 419.956,96.91 420,97.195C420.051,97.538 420.032,97.787 420.051,98.085C420.099,100.36 419.987,102.482 419.888,104.484C419.672,108.484 419.372,111.958 419.11,114.818C418.849,117.678 418.568,119.917 418.376,121.443C418.172,122.967 418.063,123.78 418.063,123.78C418.063,123.78 418.395,120.515 418.729,114.789C418.894,111.926 419.076,108.447 419.157,104.458C419.189,102.467 419.227,100.335 419.106,98.128C419.081,97.868 419.082,97.549 419.035,97.332C418.982,97.059 418.959,96.754 418.884,96.502L418.668,95.734L418.377,94.936C417.949,93.873 417.444,92.801 416.861,91.731C414.577,87.441 411.462,83.036 408.979,77.935C408.648,77.372 408.303,76.788 407.882,76.285C407.468,75.765 407.008,75.356 406.432,74.854C405.828,74.342 405.279,73.537 405.013,72.783C404.721,72.022 404.544,71.268 404.399,70.519C404.117,69.029 403.891,67.612 403.366,66.344C403.107,65.709 402.765,65.157 402.314,64.618C401.865,64.077 401.319,63.528 400.797,62.925C400.277,62.322 399.77,61.691 399.316,61.027C398.885,60.375 398.452,59.721 398.018,59.064C397.186,57.875 396.144,56.705 395.087,55.547C392.956,53.227 390.747,50.787 388.927,48.035C388.132,46.867 387.407,45.651 386.725,44.41C385.876,48.018 382.846,49.97 381.442,51.28C379.637,52.965 378.069,54.307 377.305,58.836C375.784,57.27 374.526,55.87 373.441,54.663C371.727,52.724 370.444,51.272 369.457,50.224C368.472,49.176 367.765,48.543 367.301,48.178C366.832,47.816 366.598,47.729 366.598,47.729C366.598,47.729 366.525,47.962 366.543,48.56C366.556,49.161 366.669,50.125 367.1,51.572C367.533,53.017 368.304,54.942 369.738,57.363C371.187,59.765 373.317,62.674 376.607,65.771C378.255,67.312 379.841,68.576 381.331,69.603C382.825,70.637 384.09,71.379 385.12,72.064C387.187,73.402 388.364,74.503 389.183,75.498C389.681,76.094 390.016,76.601 390.274,77.027C390.051,77.387 389.744,77.768 389.343,78.19C386.997,80.659 380.208,79.178 380.208,84.979C380.208,90.781 387.614,88.436 387.491,91.398C387.368,94.361 386.627,92.756 378.233,94.484C369.839,96.212 369.839,93.99 368.852,98.187C367.864,102.384 365.519,102.261 363.05,105.84C360.581,109.42 362.679,111.642 361.445,113.617C360.407,115.278 355.447,114.241 352.279,115.336C352.291,115.387 352.308,115.439 352.319,115.491C352.49,116.132 352.541,116.79 352.638,117.411C352.767,118.668 352.779,119.847 352.65,120.852C352.56,121.853 352.352,122.676 352.178,123.24C352.002,123.805 351.867,124.118 351.867,124.118C351.867,124.118 351.744,123.791 351.588,123.235C351.433,122.684 351.214,121.904 350.954,120.983C350.696,120.078 350.398,119.035 350.08,117.921C349.906,117.375 349.726,116.81 349.544,116.238C349.387,115.66 349.173,115.09 348.979,114.515C348.782,113.942 348.603,113.359 348.374,112.806C348.164,112.244 347.957,111.687 347.757,111.151C347.518,110.631 347.355,110.088 347.14,109.601C347.031,109.335 346.934,109.098 346.831,108.847C346.078,107.9 345.329,107.176 344.651,106.659C343.369,105.674 342.373,105.36 341.785,105.225C341.175,105.114 340.942,105.161 340.942,105.161C340.942,105.161 341.006,105.411 341.283,105.909C341.542,106.431 341.999,107.204 342.577,108.411C343.156,109.619 343.849,111.267 344.555,113.654C345.3,116.025 345.868,119.172 347.039,123.471C347.524,125.196 348.091,126.799 348.745,128.25C349.77,133.374 350.02,139.348 352.434,141.762C355.643,144.971 350.582,144.724 343.423,146.823C343.149,146.903 342.905,146.994 342.652,147.081C342.607,147.466 342.558,147.846 342.519,148.219C342.353,149.584 342.135,150.855 341.894,151.942C341.669,153.03 341.412,153.933 341.217,154.565C341.022,155.196 340.876,155.555 340.876,155.555C340.876,155.555 340.764,155.184 340.628,154.537C340.492,153.891 340.318,152.968 340.194,151.864C340.053,150.76 339.953,149.474 339.913,148.1C339.903,147.413 339.858,146.702 339.877,145.982C339.896,145.262 339.915,144.531 339.934,143.8C339.95,143.56 339.967,143.323 339.984,143.083C339.953,142.628 339.924,142.187 339.897,141.769C339.679,138.747 339.584,136.606 339.586,135.006C339.577,133.386 339.571,132.347 339.567,131.703C339.543,131.042 339.462,130.776 339.462,130.776C339.462,130.776 339.235,130.898 338.774,131.402C338.301,131.9 337.616,132.811 336.926,134.459C336.218,136.096 335.605,138.504 335.315,141.692C335.154,143.292 335.08,145.062 334.993,147.019C334.905,148.971 334.831,151.099 334.507,153.324C334.182,155.542 333.645,157.4 332.94,158.918C332.265,160.38 331.467,161.608 330.654,162.641C327.497,166.379 323.219,168.804 317.99,169.235C317.015,169.084 316.033,168.918 315.031,168.713C310.886,167.865 308.187,166.598 306.371,165.148C306.873,164.07 307.341,162.758 307.726,161.488C308.88,157.673 305.485,153.588 306.802,144.371C308.119,135.154 312.563,139.762 317.829,138.939C323.096,138.116 318.652,123.633 321.765,116.226C324.877,108.82 319.311,108.984 312.809,109.807C306.308,110.63 310.258,109.314 303.839,110.466C297.421,111.618 303.017,115.403 300.548,120.012C300.224,120.616 299.846,121.01 299.435,121.277C299.604,122.117 299.683,122.961 299.797,123.769C299.967,125.654 299.99,127.42 299.816,128.92C299.762,129.669 299.657,130.352 299.538,130.952C299.432,131.553 299.319,132.071 299.193,132.493C298.962,133.339 298.797,133.809 298.797,133.809C298.797,133.809 298.705,133.308 298.605,132.454C298.565,132.027 298.486,131.51 298.399,130.923C298.324,130.336 298.235,129.679 298.115,128.968C297.908,127.543 297.576,125.91 297.221,124.181C297.018,123.319 296.801,122.434 296.557,121.542C296.353,120.641 296.053,119.75 295.786,118.851C295.493,117.961 295.232,117.058 294.885,116.2C294.568,115.332 294.244,114.48 293.916,113.658C293.54,112.861 293.255,112.044 292.896,111.312C292.861,111.239 292.83,111.17 292.796,111.098C291.513,109.565 290.194,108.543 289.074,107.904C287.326,106.9 286.048,106.734 285.322,106.668C284.572,106.644 284.315,106.725 284.315,106.725C284.315,106.725 284.477,106.972 284.985,107.447C285.47,107.958 286.307,108.692 287.343,109.997C288.375,111.29 289.627,113.163 290.664,115.999C291.189,117.423 291.606,119.049 291.88,120.995C292.147,122.95 292.266,125.19 292.241,127.78C292.146,132.959 291.87,137.377 292.242,140.905C292.562,144.433 293.33,147.023 294.126,148.778C294.147,148.825 294.168,148.866 294.189,148.912C292.019,147.038 289.832,144.902 288.331,142.544ZM417.457,83.676C416.017,81.244 414.656,78.947 413.735,76.997C412.27,73.895 411.005,72.619 409.835,71.579C409.71,71.468 409.539,71.315 409.495,71.264C409.498,71.264 409.249,70.828 408.963,69.015C408.205,64.218 406.932,62.529 405.075,60.5C404.353,59.71 403.606,58.893 402.668,57.363C401.41,55.31 399.855,53.6 398.209,51.789C395.273,48.56 391.944,44.899 388.949,37.81C387.409,34.165 386.772,31.768 386.261,29.841C384.928,24.819 383.875,22.67 377.297,18.285C365.238,10.246 356.882,4.97 352.49,3.505C347.616,1.881 342.5,0.422 333.547,0.422C319.352,0.422 312.942,2.942 308.701,4.609C306.822,5.347 305.797,5.732 304.84,5.732L304.754,5.731C304.676,5.73 304.598,5.729 304.52,5.729C300.142,5.729 297.695,8.49 295.535,10.927C293.716,12.98 291.835,15.102 288.331,16.704C279.181,20.886 271.894,24.849 268.257,34.451C265.589,41.492 265.375,44.725 265.203,47.322C265.163,47.919 265.129,48.435 265.066,48.958C264.824,50.973 265.364,52.373 265.87,53.273C265.82,53.352 265.764,53.438 265.701,53.533C262.197,58.789 261.187,68.42 262.263,74.329C262.784,77.195 263.638,78.596 264.416,79.657C264.391,79.938 264.322,80.448 264.137,81.318C264.092,81.527 264.043,81.722 263.996,81.924C263.973,81.971 263.947,82.015 263.923,82.062C263.463,82.966 263.045,83.956 262.694,85.023C262.371,86.094 262.109,87.253 262.078,88.445C262.014,89.629 262.173,90.778 262.436,91.819C262.464,91.928 262.504,92.022 262.534,92.129C262.784,94.313 263.523,96.808 265.108,99.877C266.66,102.879 268.043,105.775 269.381,108.575C271.362,112.722 273.233,116.638 275.546,120.741C279.022,126.909 281.188,132.535 282.789,139.554C284.259,146.001 290.254,150.862 294.632,154.411C295.95,155.48 297.195,156.489 297.81,157.155C298.003,157.402 298.292,158.454 298.482,159.151C299.591,163.196 301.446,169.966 314.24,172.583C320.576,173.879 326.293,174.053 331.05,174.053C332.593,174.053 334.115,174.033 335.623,174.013C337.067,173.993 338.497,173.974 339.919,173.974C343.876,173.974 348.146,174.104 352.556,175.045C354.609,175.483 356.699,175.705 358.77,175.705C364.516,175.705 369.468,174.051 374.258,172.451C378.226,171.125 381.974,169.873 386.137,169.522C397.339,168.575 401.796,163.426 406.107,158.446C406.998,157.416 407.919,156.352 408.916,155.3C415.896,147.931 420.991,132.533 421.985,124.251C422.961,116.119 423.844,102.019 423.484,97.155C423.204,93.375 420.413,88.664 417.457,83.676Z" style="fill:rgb(63,63,63);fill-rule:nonzero;"/>
        <path d="M290.836,86.235C290.852,86.719 290.723,87.227 290.385,87.574C290.287,87.674 290.169,87.761 290.034,87.8C289.874,87.846 289.702,87.821 289.544,87.768C289.01,87.59 288.604,87.077 288.554,86.516C288.548,86.456 288.556,86.392 288.559,86.33C288.734,86.55 288.969,86.723 289.236,86.812C289.393,86.864 289.566,86.889 289.725,86.843C289.861,86.805 289.978,86.718 290.076,86.617C290.414,86.271 290.543,85.762 290.527,85.278C290.522,85.122 290.488,84.969 290.46,84.815C290.484,84.817 290.508,84.818 290.532,84.82C290.675,85.282 290.82,85.751 290.836,86.235ZM314.805,73.595C314.926,73.78 314.935,74.015 314.918,74.235C314.867,74.866 314.604,75.498 314.111,75.895C313.618,76.291 312.881,76.404 312.339,76.08C312.003,75.879 311.806,75.501 311.77,75.117C311.787,75.129 311.797,75.148 311.815,75.158C312.357,75.483 313.094,75.37 313.587,74.973C314.08,74.577 314.343,73.944 314.394,73.314C314.394,73.312 314.393,73.309 314.394,73.306C314.557,73.369 314.71,73.451 314.805,73.595ZM310.3,77.057C309.803,78.739 308.487,80.306 306.749,80.543C306.078,80.635 305.267,80.436 305.015,79.807C304.939,79.616 304.934,79.41 304.947,79.203C305.281,79.345 305.677,79.389 306.04,79.34C307.778,79.102 309.093,77.535 309.59,75.853C309.677,75.56 309.729,75.239 309.724,74.93C309.854,74.991 309.978,75.063 310.081,75.166C310.552,75.638 310.489,76.417 310.3,77.057ZM338.073,63.649C338.365,64.11 338.357,64.708 338.197,65.229C337.921,66.128 337.02,66.936 336.11,66.698C335.81,66.62 335.527,66.416 335.429,66.122C335.394,66.018 335.388,65.908 335.389,65.798C335.442,65.82 335.494,65.843 335.548,65.857C336.458,66.095 337.359,65.287 337.635,64.388C337.743,64.036 337.772,63.65 337.696,63.294C337.845,63.388 337.98,63.502 338.073,63.649ZM341.073,70.605C341.996,70.48 342.967,70.285 343.902,69.995C344.844,69.745 345.757,69.384 346.557,68.944C347.354,68.503 348.082,68.044 348.633,67.552C349.182,67.063 349.623,66.615 349.883,66.26C350.164,65.92 350.305,65.704 350.305,65.704C350.305,65.704 350.229,65.947 350.047,66.361C349.851,66.764 349.551,67.355 349.027,67.944C348.504,68.524 347.834,69.177 346.986,69.685C346.143,70.198 345.178,70.629 344.175,70.943C343.161,71.209 342.132,71.368 341.169,71.455C340.205,71.543 339.304,71.495 338.54,71.476C337.775,71.452 337.141,71.357 336.698,71.318C336.255,71.257 336.001,71.222 336.001,71.222C336.001,71.222 336.254,71.187 336.697,71.126C337.14,71.086 337.772,70.988 338.525,70.923C339.279,70.86 340.15,70.727 341.073,70.605ZM348.023,63.799C347.896,65.176 347.198,66.492 346.129,67.368C345.059,68.245 343.632,68.671 342.258,68.524C341.932,68.49 341.605,68.423 341.313,68.273C340.711,67.963 340.325,67.317 340.226,66.647C340.19,66.404 340.198,66.159 340.224,65.916C340.402,66.168 340.626,66.386 340.902,66.527C341.193,66.677 341.52,66.744 341.846,66.779C343.221,66.925 344.648,66.499 345.717,65.623C346.745,64.781 347.416,63.531 347.58,62.213C347.671,62.307 347.757,62.406 347.823,62.519C348.042,62.9 348.063,63.362 348.023,63.799ZM351.645,27.518C351.661,28.002 351.532,28.51 351.194,28.857C351.096,28.958 350.978,29.045 350.843,29.083C350.683,29.129 350.511,29.104 350.353,29.052C349.996,28.933 349.708,28.658 349.534,28.326C349.581,28.349 349.624,28.382 349.674,28.399C349.832,28.451 350.004,28.476 350.164,28.43C350.299,28.392 350.417,28.305 350.515,28.204C350.853,27.858 350.982,27.349 350.966,26.865C350.957,26.596 350.905,26.332 350.839,26.07C351.006,26.081 351.173,26.092 351.341,26.103C351.484,26.565 351.629,27.034 351.645,27.518ZM357.97,23.953C358.407,24.78 358.42,25.767 358.314,26.697C358.219,27.534 358.029,28.377 357.601,29.103C357.173,29.828 356.478,30.428 355.651,30.593C354.825,30.757 353.881,30.413 353.474,29.675C353.408,29.555 353.361,29.4 353.316,29.243C353.661,29.35 354.032,29.391 354.386,29.32C355.213,29.156 355.907,28.556 356.336,27.83C356.764,27.104 356.953,26.262 357.049,25.424C357.145,24.577 357.126,23.688 356.794,22.91C357.267,23.094 357.693,23.429 357.97,23.953ZM348.669,79.606C348.176,80.002 347.439,80.115 346.896,79.791C346.354,79.466 346.114,78.677 346.465,78.151L346.703,77.3C347.296,76.912 348.05,76.779 348.74,76.941C348.98,76.998 349.227,77.1 349.362,77.307C349.483,77.491 349.493,77.727 349.475,77.947C349.425,78.577 349.161,79.209 348.669,79.606ZM293.617,96.26C293.094,96.107 292.57,95.954 292.04,95.807C290.671,95.391 289.293,95.002 287.993,94.665C286.692,94.338 285.488,93.975 284.439,93.731C283.396,93.462 282.523,93.237 281.913,93.08C281.303,92.916 280.954,92.823 280.954,92.823C280.954,92.823 281.314,92.848 281.945,92.891C282.573,92.956 283.478,93.018 284.547,93.188C285.617,93.354 286.871,93.54 288.194,93.834C289.515,94.133 290.919,94.482 292.315,94.86C293.697,95.288 295.069,95.744 296.345,96.199C296.728,96.336 297.096,96.479 297.455,96.622C300.416,96.935 303.002,97.304 303.656,97.68C305.01,98.46 307.342,96.928 308.244,93.039C309.147,89.151 314.102,94.75 316.242,92.857C316.665,92.483 316.873,92.041 316.948,91.552C316.881,91.396 316.815,91.243 316.749,91.074C316.349,90.047 315.888,88.827 315.629,87.444C315.376,86.065 315.283,84.533 315.531,83.02C315.819,81.514 316.439,80.106 317.162,78.904C317.887,77.698 318.756,76.723 319.49,75.9C320.233,75.082 320.924,74.475 321.387,74.033C321.868,73.607 322.142,73.364 322.142,73.364C322.142,73.364 321.919,73.655 321.528,74.163C321.124,74.659 320.577,75.394 319.915,76.255C319.254,77.118 318.555,78.173 317.902,79.333C317.337,80.34 316.878,81.471 316.619,82.649C317.86,80.276 320.201,77.773 322.465,74.785C325.311,71.028 330.282,74.905 332.682,78.514C335.081,82.123 336.194,82.292 340.314,82.508C344.434,82.723 343.737,86.437 346.199,90.959C348.661,95.482 352.55,95.744 357.566,95.643C362.582,95.543 361.871,91.984 361.471,86.378C361.071,80.773 362.504,80.744 358.172,77.662C353.839,74.581 359.202,73.218 357.855,67.674C356.508,62.13 354.659,58.275 352.289,52.411C349.919,46.547 352.236,45.544 353.956,42.149C355.677,38.755 361.913,43.563 368.594,42.196C375.276,40.829 370.906,36.961 368.977,35.107C367.048,33.253 365.228,27.144 362.026,21.318C358.824,15.492 360.14,16.678 352.083,16.343C344.026,16.007 340.223,21.415 336.378,24.98C335.976,25.353 335.683,25.778 335.451,26.23C335.796,26.553 336.14,26.873 336.496,27.204C337.006,27.709 337.557,28.187 338.096,28.677C338.633,29.168 339.16,29.673 339.71,30.134C340.243,30.616 340.77,31.092 341.279,31.552C342.313,32.467 343.281,33.322 344.118,34.062C344.958,34.805 345.658,35.452 346.152,35.911C346.647,36.369 346.918,36.663 346.918,36.663C346.918,36.663 346.529,36.599 345.867,36.428C345.207,36.255 344.271,35.972 343.209,35.501C342.13,35.059 340.933,34.415 339.706,33.634C339.111,33.221 338.463,32.83 337.873,32.345C337.27,31.876 336.689,31.363 336.097,30.861C335.546,30.314 334.985,29.778 334.468,29.217C333.927,28.678 333.484,28.063 333.018,27.508C332.963,27.438 332.914,27.367 332.86,27.296C332.315,26.852 331.82,26.431 331.387,26.028C329.878,24.652 328.912,23.516 328.197,22.63C327.48,21.7 327.011,21.092 326.715,20.708C326.409,20.309 326.222,20.165 326.222,20.165C326.222,20.165 326.069,20.324 325.875,20.834C325.707,21.339 325.497,22.222 325.667,23.616C325.841,24.995 326.433,26.893 327.901,29.003C329.351,31.138 331.725,33.289 334.562,35.497C340.146,39.771 342.305,42.631 343.628,44.53C344.115,45.254 344.475,45.79 344.741,46.185C344.632,46.934 344.319,47.789 343.786,48.861C341.732,52.985 333.783,54.611 330.938,57.178C328.094,59.744 325.165,58.889 321.224,58.367C319.46,58.134 316.224,59.318 312.93,60.584C312.543,60.643 312.132,60.704 311.693,60.765C312.189,60.869 312.681,60.963 313.171,61.029C315.045,61.302 316.831,61.403 318.384,61.42C319.933,61.412 321.251,61.337 322.178,61.25C323.113,61.166 323.654,61.117 323.654,61.117C323.654,61.117 323.195,61.413 322.333,61.819C321.473,62.231 320.194,62.743 318.58,63.109C316.97,63.485 315.025,63.712 312.933,63.627C311.89,63.573 310.806,63.484 309.722,63.277C308.641,63.056 307.554,62.771 306.485,62.423C305.431,62.032 304.402,61.581 303.417,61.084C302.434,60.582 301.53,59.977 300.677,59.376C300.219,59.05 299.79,58.708 299.382,58.359C299.224,58.073 299.055,57.774 298.865,57.448C298.306,56.592 297.603,55.628 296.821,54.608C295.979,53.644 295.039,52.65 294.061,51.692C293.014,50.809 291.936,49.968 290.896,49.221C289.807,48.539 288.781,47.93 287.876,47.455C286.945,47.021 286.156,46.696 285.602,46.478C285.032,46.292 284.707,46.186 284.707,46.186C284.707,46.186 284.963,46.412 285.41,46.809C285.872,47.176 286.523,47.71 287.27,48.382C288.058,48.991 288.938,49.75 289.856,50.579C290.808,51.364 291.789,52.241 292.734,53.151C293.029,53.405 293.313,53.666 293.601,53.924C291.528,52.691 289.903,51.889 288.666,51.379C286.132,50.332 285.192,50.478 285.192,50.478C285.192,50.478 285.319,51.42 287.041,53.554C287.902,54.621 289.161,55.986 291.003,57.68C291.924,58.527 292.99,59.456 294.225,60.471C295.199,61.253 296.237,62.125 297.55,63.046C294.11,63.558 290.148,64.681 287.868,65.464C284.053,66.773 290.004,73.757 287.021,75.029C284.038,76.3 281.199,75.294 274.205,79.9C267.211,84.506 275.179,86.579 276.208,91.13C277.237,95.682 281.369,95.413 288.548,95.88C289.838,95.964 291.669,96.095 293.617,96.26Z" style="fill:rgb(63,63,63);fill-rule:nonzero;"/>
        <path d="M338.363,5.542C339.544,5.601 340.669,5.658 341.721,5.71C339.162,5.319 336.61,5.146 334.114,5.099C328.927,5.01 324.046,5.301 319.561,6.086C319.272,6.316 319.004,6.536 318.783,6.73C318.092,7.329 317.727,7.725 317.727,7.725C317.727,7.725 318.268,7.719 319.17,7.627C320.075,7.543 321.34,7.374 322.813,7.147C324.257,6.905 325.922,6.627 327.698,6.329C328.571,6.19 329.462,6.055 330.357,5.934C331.255,5.814 332.155,5.716 333.054,5.645C333.951,5.57 334.842,5.529 335.724,5.511C336.608,5.508 337.493,5.511 338.363,5.542Z" style="fill:rgb(63,63,63);fill-rule:nonzero;"/>
        <path d="M290.888,28.965C289.894,30.995 288.513,35.257 291.534,35.998C293.142,36.393 294.902,36.106 296.317,35.245C297.732,34.384 298.792,32.966 299.243,31.372C299.387,30.864 299.471,30.326 299.371,29.808C299.201,28.933 298.516,28.224 297.721,27.819C295.584,26.729 292.085,26.521 290.888,28.965Z" style="fill:rgb(63,63,63);fill-rule:nonzero;"/>
        <path d="M302.566,28.133C303.336,28.177 304.139,28.119 304.815,27.75C305.492,27.381 306.008,26.639 305.919,25.873C305.895,25.668 305.826,25.461 305.685,25.309C305.114,24.694 303.324,24.436 302.583,24.861C301.864,25.273 301.062,26.838 301.446,27.622C301.636,28.009 302.136,28.109 302.566,28.133Z" style="fill:rgb(63,63,63);fill-rule:nonzero;"/>
        <path d="M316.133,48.762C316.603,47.081 315.695,45.244 314.317,44.171C311.591,42.051 308.451,41.943 306.199,44.643C305.542,45.431 304.913,46.273 304.608,47.252C304.303,48.231 304.373,49.38 305.019,50.177C305.676,50.987 306.765,51.28 307.785,51.496C309.37,51.832 311.018,52.092 312.6,51.745C314.182,51.398 315.697,50.322 316.133,48.762Z" style="fill:rgb(63,63,63);fill-rule:nonzero;"/>
        <path d="M323.683,34.923C322.361,34.604 320.867,36.743 320.403,37.717C320.318,37.896 320.24,38.094 320.283,38.287C320.368,38.666 320.846,38.794 321.235,38.783C322.538,38.744 323.785,37.905 324.311,36.712C324.446,36.405 324.537,36.063 324.469,35.735C324.388,35.346 324.069,35.016 323.683,34.923Z" style="fill:rgb(63,63,63);fill-rule:nonzero;"/>
        <path d="M279.346,59.99C278.922,59.003 278.49,59.288 278.183,60.11C277.801,61.136 277.377,62.182 277.045,63.226C276.723,64.239 276.56,65.332 276.809,66.365C276.88,66.66 277.033,66.992 277.331,67.046C277.643,67.103 277.906,66.823 278.086,66.562C279.213,64.928 280.187,61.951 279.346,59.99Z" style="fill:rgb(63,63,63);fill-rule:nonzero;"/>
        <path d="M278.53,73.329C278.768,73.443 279.032,73.243 279.208,73.047C279.938,72.231 282.238,67.39 280.088,67.287C278.265,67.198 278.039,71.734 278.259,72.858C278.295,73.043 278.36,73.248 278.53,73.329Z" style="fill:rgb(63,63,63);fill-rule:nonzero;"/>
        <path d="M278.715,102.868C278.458,102.43 278.14,101.993 277.674,101.791C275.88,101.012 276.406,103.474 276.61,104.346C277.022,106.101 277.464,107.817 278.212,109.465C278.426,109.936 278.663,110.408 279.022,110.78C279.382,111.153 279.884,111.418 280.401,111.381C280.622,110.649 280.556,109.863 280.469,109.102C280.224,106.941 279.816,104.744 278.715,102.868Z" style="fill:rgb(63,63,63);fill-rule:nonzero;"/>
        <path d="M280.144,98.418C279.914,98.117 279.544,97.901 279.168,97.944C278.173,98.059 279.871,102.673 280.015,103.096C280.076,103.276 280.177,103.489 280.368,103.503C280.783,102.204 280.852,100.795 280.564,99.461C280.485,99.092 280.373,98.718 280.144,98.418Z" style="fill:rgb(63,63,63);fill-rule:nonzero;"/>
        <path d="M302.838,100.681C302.126,100.767 301.871,101.093 301.763,101.768C301.51,103.34 301.872,105.755 302.492,107.184C302.655,107.56 302.909,107.957 303.312,108.028C303.817,108.116 304.241,107.649 304.485,107.198C305.243,105.795 305.325,104.046 304.702,102.578C304.307,101.647 304.061,100.534 302.838,100.681Z" style="fill:rgb(63,63,63);fill-rule:nonzero;"/>
        <path d="M310.943,97.882C309.923,97.641 308.806,97.78 307.911,98.325C306.015,99.48 306.13,102.112 306.594,104.04C306.842,105.072 307.503,106.067 308.501,106.429C309.245,106.699 310.074,106.589 310.833,106.366C311.502,106.17 312.152,105.884 312.702,105.455C313.975,104.462 314.581,102.695 314.208,101.124C313.835,99.553 312.515,98.254 310.943,97.882Z" style="fill:rgb(63,63,63);fill-rule:nonzero;"/>
        <path d="M320.658,149.24C318.882,148.729 315.748,148.477 314.6,150.33C313.451,152.185 313.919,154.933 315.656,156.203C316.514,156.83 317.566,157.153 318.622,157.262C320.082,157.412 321.631,157.143 322.806,156.264C323.981,155.384 324.695,153.828 324.341,152.404C323.932,150.758 322.288,149.71 320.658,149.24Z" style="fill:rgb(63,63,63);fill-rule:nonzero;"/>
        <path d="M328.43,145.214C326.916,143.947 322.735,143.918 323.477,146.871C323.945,148.736 328.736,148.716 329.182,146.882C329.334,146.257 328.923,145.627 328.43,145.214Z" style="fill:rgb(63,63,63);fill-rule:nonzero;"/>
        <path d="M334.074,107.506C329.486,109.026 330.478,117.398 330.933,120.844C331.058,121.79 331.227,122.758 331.724,123.573C332.221,124.387 333.119,125.023 334.07,124.945C335.339,124.842 336.174,123.601 336.717,122.45C337.978,119.772 338.716,116.848 338.877,113.892C338.962,112.318 338.864,110.661 338.06,109.305C337.257,107.948 335.57,107.01 334.074,107.506Z" style="fill:rgb(63,63,63);fill-rule:nonzero;"/>
        <path d="M331.349,105.078C332.255,104.829 332.959,104.044 333.238,103.147C333.518,102.251 333.408,101.264 333.067,100.389C332.954,100.098 332.805,99.803 332.547,99.626C330.145,97.972 331.044,105.162 331.349,105.078Z" style="fill:rgb(63,63,63);fill-rule:nonzero;"/>
        <path d="M366.782,64.803C364.516,64.474 362.997,68.717 362.901,70.521C362.795,72.487 363.723,75.043 364.433,76.849C365.62,79.868 368.036,80.497 371.062,80.317C371.684,80.28 372.347,80.222 372.84,79.84C373.735,79.145 373.638,77.778 373.365,76.678C372.837,74.55 371.977,72.521 371.121,70.503C370.396,68.795 368.985,65.123 366.782,64.803Z" style="fill:rgb(63,63,63);fill-rule:nonzero;"/>
        <path d="M363.655,65.093C363.85,65.056 364.008,64.918 364.143,64.773C364.952,63.905 365.241,62.633 365.073,61.458C364.905,60.284 364.323,59.201 363.586,58.271C362.613,57.045 361.688,58.227 361.64,59.297C361.568,60.872 362.04,62.856 362.67,64.287C362.855,64.708 363.204,65.179 363.655,65.093Z" style="fill:rgb(63,63,63);fill-rule:nonzero;"/>
        <path d="M374.821,27.437C374.341,26.502 373.862,25.566 373.383,24.631C372.684,23.267 371.791,21.749 370.361,21.502C366.64,20.86 370.773,29.253 371.479,30.583C372.707,32.897 374.426,34.996 376.653,36.179C376.962,34.883 376.986,33.506 376.723,32.189C376.386,30.502 375.598,28.955 374.821,27.437Z" style="fill:rgb(63,63,63);fill-rule:nonzero;"/>
        <path d="M380.228,33.754C379.675,33.297 378.799,32.96 378.292,33.468C377.802,33.957 378.086,34.782 378.397,35.4C378.465,35.535 378.533,35.67 378.6,35.805L378.898,36.502C379.299,38.214 380.509,39.717 382.096,40.473C382.918,38.138 382.137,35.329 380.228,33.754Z" style="fill:rgb(63,63,63);fill-rule:nonzero;"/>
        <path d="M345.993,13.385C346.36,13.421 346.736,13.455 347.092,13.358C347.448,13.261 347.784,13.005 347.869,12.647C347.993,12.127 347.571,11.642 347.143,11.323C345.495,10.096 343.356,9.799 341.318,9.54C339.617,9.324 337.735,9.151 336.336,10.142C336.084,10.32 335.842,10.558 335.8,10.863C335.527,12.858 344.685,13.255 345.993,13.385Z" style="fill:rgb(63,63,63);fill-rule:nonzero;"/>
        <path d="M326.747,12.716C327.326,12.755 327.914,12.794 328.481,12.67C328.968,12.563 329.445,12.317 329.747,11.926C329.796,11.863 329.841,11.796 329.88,11.725C329.954,11.59 330.009,11.434 329.978,11.283C329.916,10.983 329.57,10.851 329.274,10.773C327.956,10.423 325.764,9.494 324.79,10.878C323.578,12.6 325.531,12.633 326.747,12.716Z" style="fill:rgb(63,63,63);fill-rule:nonzero;"/>
        <path d="M307.893,12.288C306.649,12.992 305.242,14.109 304.253,15.127C304.038,15.348 303.825,15.693 304.013,15.938C304.169,16.141 304.481,16.102 304.729,16.041C305.992,15.729 307.237,15.343 308.455,14.888C310.124,14.263 311.859,13.401 312.681,11.819C312.685,11.81 308.556,11.912 307.893,12.288Z" style="fill:rgb(63,63,63);fill-rule:nonzero;"/>
        <path d="M277.486,46.432C277.822,46.413 278.062,46.109 278.244,45.825C279.542,43.804 280.253,41.411 280.272,39.009C280.274,38.644 280.236,38.226 279.942,38.009C277.783,36.412 276.601,44.171 276.652,45.191C276.679,45.747 276.93,46.463 277.486,46.432Z" style="fill:rgb(63,63,63);fill-rule:nonzero;"/>
        <path d="M325.267,88.073C325.891,87.9 326.391,87.408 326.695,86.836C326.999,86.265 327.128,85.616 327.206,84.974C327.366,83.651 327.326,82.312 327.264,80.981C327.217,79.975 327.057,78.8 326.181,78.304C324.67,77.448 322.405,79.2 322.273,80.747C322.202,81.571 322.325,82.395 322.237,83.231C322.11,84.427 322.012,85.675 322.621,86.769C323.137,87.695 324.245,88.356 325.267,88.073Z" style="fill:rgb(63,63,63);fill-rule:nonzero;"/>
        <path d="M331.104,90.199C331.992,88.708 332.226,82.447 329.302,84.753C328.047,85.744 328,90.442 329.521,91.074C329.825,91.201 330.187,91.123 330.461,90.94C330.735,90.757 330.935,90.482 331.104,90.199Z" style="fill:rgb(63,63,63);fill-rule:nonzero;"/>
        <path d="M365.049,52.349C364.569,51.415 364.136,50.528 363.8,49.751C363.396,48.996 363.083,48.351 362.87,47.895C362.625,47.447 362.484,47.19 362.484,47.19C362.484,47.19 362.49,47.483 362.501,47.996C362.547,48.501 362.621,49.224 362.746,50.091C362.92,50.942 363.169,51.925 363.459,52.979C363.822,54.004 364.248,55.084 364.71,56.152C365.261,57.176 365.845,58.18 366.424,59.1C367.071,59.981 367.689,60.786 368.249,61.45C368.852,62.085 369.374,62.591 369.742,62.94C370.138,63.266 370.365,63.452 370.365,63.452C370.365,63.452 370.251,63.183 370.051,62.711C369.826,62.262 369.513,61.616 369.172,60.831C368.77,60.086 368.342,59.197 367.906,58.241C367.419,57.314 366.935,56.31 366.485,55.292C365.964,54.308 365.476,53.305 365.049,52.349Z" style="fill:rgb(63,63,63);fill-rule:nonzero;"/>
        <path d="M355.164,98.924C354.026,98.892 352.707,98.791 351.382,98.46C350.048,98.201 348.68,97.71 347.555,96.918C346.382,96.212 345.405,95.148 344.664,94.013C343.86,92.913 343.28,91.727 342.835,90.681C342.333,89.651 341.968,88.748 341.711,88.119C341.424,87.496 341.26,87.139 341.26,87.139C341.26,87.139 341.289,87.531 341.341,88.217C341.431,88.894 341.553,89.863 341.785,91.033C342.079,92.179 342.493,93.531 343.205,94.906C343.969,96.238 345.045,97.586 346.475,98.57C347.944,99.478 349.586,99.944 351.104,100.151C352.642,100.292 354.046,100.179 355.22,100.034C356.392,99.822 357.34,99.587 358.004,99.425C358.662,99.225 359.038,99.11 359.038,99.11C359.038,99.11 358.646,99.086 357.961,99.043C357.281,99.03 356.308,99.015 355.164,98.924Z" style="fill:rgb(63,63,63);fill-rule:nonzero;"/>
        <path d="M286.212,99.455C286.902,99.658 287.708,99.895 288.571,100.149C289.445,100.335 290.377,100.533 291.309,100.732C292.256,100.843 293.202,100.954 294.09,101.058C294.989,101.094 295.827,101.128 296.546,101.157C297.275,101.125 297.883,101.098 298.308,101.079C298.739,101.026 298.985,100.995 298.985,100.995C298.985,100.995 298.762,100.888 298.371,100.699C297.974,100.545 297.407,100.325 296.727,100.061C296.036,99.858 295.231,99.622 294.368,99.368C293.494,99.182 292.562,98.984 291.629,98.786C290.683,98.675 289.736,98.565 288.848,98.461C287.95,98.425 287.111,98.391 286.392,98.362C285.663,98.394 285.056,98.421 284.63,98.44C284.199,98.492 283.953,98.522 283.953,98.522C283.953,98.522 284.177,98.629 284.568,98.817C284.965,98.971 285.532,99.191 286.212,99.455Z" style="fill:rgb(63,63,63);fill-rule:nonzero;"/>
        <path d="M317.898,142.636C318.782,142.722 319.703,142.88 320.806,142.846C321.351,142.804 321.94,142.703 322.526,142.447C323.11,142.196 323.669,141.757 324.055,141.23C324.844,140.179 325.068,138.879 325.072,137.747C325.024,136.594 324.857,135.613 324.766,134.604C324.662,133.6 324.574,132.61 324.504,131.65C324.294,129.735 324.154,127.938 324.068,126.394C323.918,124.851 323.828,123.558 323.775,122.652C323.692,121.743 323.645,121.223 323.645,121.223C323.645,121.223 323.552,121.737 323.391,122.637C323.269,123.54 323.107,124.834 322.956,126.394C322.866,127.954 322.802,129.78 322.793,131.739C322.822,132.717 322.869,133.728 322.931,134.754C322.982,135.777 323.105,136.849 323.099,137.767C323.139,138.687 322.986,139.535 322.565,140.152C322.175,140.751 321.504,141.046 320.649,141.143C319.815,141.272 318.86,141.235 317.969,141.245C317.079,141.248 316.238,141.25 315.461,141.252C313.904,141.318 312.606,141.373 311.697,141.411C310.786,141.484 310.266,141.525 310.266,141.525C310.266,141.525 310.778,141.623 311.675,141.793C312.575,141.929 313.86,142.124 315.402,142.358C316.175,142.444 317.013,142.537 317.898,142.636Z" style="fill:rgb(63,63,63);fill-rule:nonzero;"/>
        <path d="M344.5,124.962C344.774,125.934 345.028,127.084 345.267,128.314C345.559,129.529 345.814,130.836 346.016,132.15C346.291,133.45 346.513,134.764 346.669,136.004C346.879,137.239 347.047,138.404 347.134,139.41C347.298,140.414 347.394,141.262 347.451,141.857C347.541,142.457 347.592,142.799 347.592,142.799C347.592,142.799 347.68,142.464 347.835,141.876C347.953,141.284 348.109,140.433 348.246,139.399C348.335,138.366 348.37,137.155 348.375,135.851C348.297,134.554 348.156,133.172 347.957,131.796C347.656,130.438 347.301,129.096 346.915,127.855C346.449,126.636 345.988,125.516 345.54,124.581C345.048,123.662 344.601,122.921 344.282,122.409C343.931,121.913 343.73,121.63 343.73,121.63C343.73,121.63 343.803,121.969 343.931,122.561C344.088,123.138 344.299,123.965 344.5,124.962Z" style="fill:rgb(63,63,63);fill-rule:nonzero;"/>
        <path d="M331.754,37.582C332.311,38.188 332.88,38.855 333.426,39.54C333.999,40.202 334.551,40.884 335.045,41.542C335.529,42.206 336.034,42.794 336.409,43.34C336.794,43.879 337.15,44.312 337.37,44.634C337.609,44.946 337.746,45.124 337.746,45.124C337.746,45.124 337.67,44.912 337.539,44.541C337.387,44.18 337.199,43.645 336.883,43.05C336.572,42.453 336.214,41.748 335.744,41.046C335.271,40.347 334.74,39.619 334.184,38.91C333.588,38.233 332.969,37.578 332.368,36.986C331.763,36.398 331.137,35.915 330.607,35.5C330.079,35.081 329.588,34.797 329.261,34.582C328.92,34.385 328.726,34.272 328.726,34.272C328.726,34.272 328.876,34.438 329.14,34.73C329.416,35.006 329.777,35.434 330.236,35.911C330.704,36.38 331.192,36.983 331.754,37.582Z" style="fill:rgb(63,63,63);fill-rule:nonzero;"/>
        <path d="M290.532,26.811C290.144,27.212 289.83,27.672 289.606,28.133C289.379,28.595 289.309,29.077 289.258,29.471C289.212,29.871 289.28,30.207 289.314,30.43C289.368,30.656 289.41,30.778 289.41,30.778C289.41,30.778 289.437,30.649 289.505,30.437C289.55,30.222 289.675,29.93 289.797,29.596C289.919,29.259 290.14,28.905 290.359,28.539C290.58,28.172 290.872,27.819 291.211,27.527C291.52,27.206 291.889,26.933 292.267,26.732C292.646,26.536 293.01,26.332 293.353,26.229C293.693,26.125 293.991,26.016 294.208,25.982C294.424,25.926 294.554,25.905 294.554,25.905C294.554,25.905 294.434,25.856 294.212,25.79C293.99,25.744 293.659,25.657 293.257,25.682C292.861,25.712 292.375,25.753 291.902,25.957C291.43,26.157 290.953,26.445 290.532,26.811Z" style="fill:rgb(63,63,63);fill-rule:nonzero;"/>
        <path d="M281.23,29.982C281.733,29.419 282.408,28.851 283.095,28.219C283.797,27.6 284.588,26.992 285.414,26.439C286.225,25.863 287.075,25.34 287.903,24.904C288.738,24.49 289.508,24.058 290.214,23.789C290.91,23.5 291.497,23.246 291.92,23.107C292.34,22.949 292.58,22.858 292.58,22.858C292.58,22.858 292.324,22.881 291.875,22.92C291.431,22.982 290.782,23.049 290.035,23.263C289.285,23.461 288.413,23.732 287.524,24.136C286.642,24.552 285.731,25.06 284.854,25.627C284.013,26.245 283.215,26.916 282.512,27.593C281.82,28.281 281.255,28.999 280.803,29.63C280.339,30.252 280.044,30.834 279.829,31.227C279.632,31.632 279.52,31.864 279.52,31.864C279.52,31.864 279.69,31.672 279.987,31.335C280.267,30.989 280.711,30.53 281.23,29.982Z" style="fill:rgb(63,63,63);fill-rule:nonzero;"/>
        <path d="M338.536,7.706C337.997,7.734 337.552,7.837 337.242,7.886C336.934,7.957 336.758,7.998 336.758,7.998C336.758,7.998 336.936,8.026 337.248,8.077C337.557,8.108 337.998,8.198 338.521,8.259C339.045,8.31 339.648,8.445 340.295,8.526C340.941,8.617 341.625,8.741 342.303,8.891C342.987,9.005 343.668,9.146 344.301,9.304C344.93,9.473 345.541,9.57 346.046,9.72C346.554,9.859 346.996,9.939 347.295,10.027C347.603,10.096 347.779,10.135 347.779,10.135C347.779,10.135 347.631,10.032 347.372,9.85C347.103,9.689 346.729,9.425 346.239,9.199C345.752,8.97 345.181,8.688 344.537,8.481C343.892,8.276 343.195,8.086 342.49,7.923C341.776,7.811 341.058,7.727 340.384,7.676C339.708,7.629 339.074,7.675 338.536,7.706Z" style="fill:rgb(63,63,63);fill-rule:nonzero;"/>
        <path d="M360.681,12.376C359.723,11.873 358.789,11.483 357.994,11.144C357.2,10.802 356.506,10.592 356.031,10.425C355.548,10.278 355.272,10.194 355.272,10.194C355.272,10.194 355.52,10.341 355.953,10.599C356.387,10.851 357.008,11.211 357.75,11.641C358.502,12.05 359.341,12.595 360.266,13.124C361.187,13.661 362.153,14.26 363.102,14.884C364.071,15.476 365.025,16.095 365.904,16.698C366.775,17.311 367.628,17.835 368.318,18.341C369.023,18.828 369.615,19.236 370.027,19.521C370.446,19.802 370.685,19.963 370.685,19.963C370.685,19.963 370.492,19.749 370.153,19.375C369.799,19.017 369.314,18.478 368.665,17.907C368.019,17.333 367.269,16.652 366.403,16.002C365.536,15.356 364.592,14.691 363.63,14.051C362.64,13.454 361.636,12.885 360.681,12.376Z" style="fill:rgb(63,63,63);fill-rule:nonzero;"/>
        <path d="M338.449,20.828C339.051,20.379 339.813,19.943 340.594,19.439C341.386,18.947 342.256,18.468 343.147,18.034C344.024,17.573 344.926,17.156 345.791,16.81C346.661,16.482 347.462,16.123 348.181,15.905C348.893,15.67 349.488,15.45 349.914,15.333C350.338,15.196 350.581,15.118 350.581,15.118C350.581,15.118 350.326,15.127 349.879,15.144C349.437,15.183 348.792,15.212 348.041,15.367C347.288,15.511 346.406,15.698 345.493,16.007C344.585,16.325 343.633,16.715 342.702,17.154C341.797,17.645 340.918,18.18 340.124,18.724C339.336,19.278 338.662,19.876 338.1,20.398C337.531,20.912 337.124,21.413 336.831,21.747C336.553,22.096 336.394,22.296 336.394,22.296C336.394,22.296 336.6,22.147 336.962,21.886C337.308,21.612 337.837,21.261 338.449,20.828Z" style="fill:rgb(63,63,63);fill-rule:nonzero;"/>
        <path d="M297.092,51.701C296.633,51.14 296.231,50.676 295.981,50.329C295.713,49.991 295.56,49.798 295.56,49.798C295.56,49.798 295.654,50.027 295.817,50.427C296,50.817 296.243,51.393 296.641,52.022C297.029,52.656 297.509,53.387 298.111,54.103C298.722,54.809 299.42,55.524 300.157,56.199C300.934,56.828 301.745,57.411 302.534,57.91C303.33,58.401 304.127,58.764 304.812,59.053C305.492,59.354 306.099,59.507 306.512,59.63C306.932,59.731 307.172,59.789 307.172,59.789C307.172,59.789 306.958,59.667 306.584,59.452C306.204,59.256 305.685,58.928 305.063,58.557C304.429,58.203 303.752,57.692 303.006,57.195C302.268,56.68 301.516,56.085 300.801,55.451C300.066,54.838 299.366,54.184 298.747,53.531C298.141,52.869 297.537,52.274 297.092,51.701Z" style="fill:rgb(63,63,63);fill-rule:nonzero;"/>
        <path d="M308.522,41.14C307.739,41.44 307.116,41.926 306.636,42.363C306.155,42.812 305.874,43.286 305.69,43.609C305.519,43.942 305.446,44.14 305.446,44.14C305.446,44.14 305.581,43.974 305.844,43.723C306.086,43.454 306.493,43.135 306.984,42.794C307.477,42.452 308.118,42.172 308.808,41.946C309.501,41.72 310.279,41.622 311.036,41.695C311.796,41.73 312.553,41.937 313.207,42.258C313.856,42.582 314.452,42.947 314.892,43.356C315.329,43.763 315.688,44.136 315.89,44.435C316.114,44.722 316.225,44.904 316.225,44.904C316.225,44.904 316.181,44.699 316.059,44.344C315.923,43.999 315.712,43.489 315.299,42.977C314.885,42.477 314.339,41.905 313.604,41.5C312.876,41.092 312.011,40.8 311.106,40.711C310.198,40.672 309.3,40.839 308.522,41.14Z" style="fill:rgb(63,63,63);fill-rule:nonzero;"/>
        <path d="M292.963,110.006C293.56,110.61 294.116,111.256 294.591,111.898C295.049,112.55 295.521,113.141 295.837,113.705C296.171,114.257 296.466,114.721 296.637,115.063C296.827,115.4 296.935,115.592 296.935,115.592C296.935,115.592 296.892,115.375 296.816,114.994C296.719,114.62 296.6,114.069 296.333,113.454C296.08,112.836 295.752,112.118 295.295,111.409C294.829,110.708 294.277,109.996 293.676,109.324C293.031,108.694 292.344,108.112 291.664,107.615C290.975,107.13 290.273,106.768 289.666,106.488C289.064,106.195 288.519,106.05 288.15,105.937C287.773,105.844 287.558,105.791 287.558,105.791C287.558,105.791 287.745,105.908 288.074,106.112C288.408,106.298 288.859,106.612 289.395,106.97C289.945,107.312 290.516,107.808 291.146,108.295C291.766,108.799 292.386,109.383 292.963,110.006Z" style="fill:rgb(63,63,63);fill-rule:nonzero;"/>
    </g>
</svg>
