<svg width="30" height="30" viewBox="0 0 30 30" fill="none" xmlns="http://www.w3.org/2000/svg">
<path d="M28.3498 1.65023C27.2491 0.549577 25.9247 0 24.3751 0H5.62491C4.07528 0 2.75089 0.549577 1.65023 1.65023C0.549577 2.75089 0 4.07528 0 5.62491V24.3751C0 25.9247 0.549577 27.2491 1.65023 28.3498C2.75089 29.4504 4.07528 30 5.62491 30H10.0005C10.2858 30 10.5005 29.9895 10.6447 29.97C10.8124 29.9363 10.9638 29.8469 11.0741 29.7162C11.2168 29.566 11.2889 29.3483 11.2889 29.063L11.2783 27.7341C11.2723 26.8872 11.2693 26.2175 11.2693 25.722L10.8189 25.8001C10.5336 25.8526 10.1732 25.8752 9.73622 25.8692C9.28078 25.8608 8.82678 25.8151 8.3788 25.7325C7.9019 25.6445 7.45297 25.4437 7.06942 25.1469C6.66774 24.843 6.36815 24.424 6.21052 23.9456L6.01532 23.4952C5.85079 23.1398 5.64408 22.8056 5.39967 22.4996C5.12038 22.1347 4.83658 21.8885 4.54978 21.7578L4.41464 21.6602C4.3204 21.5928 4.23469 21.5141 4.15937 21.426C4.08743 21.3442 4.0282 21.2521 3.98368 21.1527C3.94464 21.0611 3.97768 20.986 4.08128 20.9275C4.1864 20.8674 4.37409 20.8389 4.64888 20.8389L5.03929 20.8989C5.29906 20.95 5.6219 21.1062 6.00481 21.3659C6.3923 21.6301 6.71599 21.9774 6.9523 22.3825C7.25262 22.9156 7.61299 23.3225 8.03644 23.6033C8.45988 23.8826 8.88633 24.0237 9.31578 24.0237C9.74523 24.0237 10.1161 23.9907 10.43 23.9261C10.7334 23.8634 11.0283 23.7646 11.3084 23.6318C11.4255 22.7609 11.7438 22.0882 12.2649 21.6197C11.5897 21.5535 10.9206 21.436 10.2633 21.2683C9.62179 21.0921 9.00486 20.8364 8.42685 20.507C7.82208 20.1778 7.28791 19.7329 6.8547 19.1977C6.43876 18.6766 6.0964 17.9934 5.82912 17.148C5.56334 16.3011 5.4297 15.3236 5.4297 14.2169C5.4297 12.6418 5.94324 11.3009 6.97182 10.1927C6.49132 9.00946 6.53636 7.68056 7.10846 6.21052C7.48686 6.0919 8.04695 6.18049 8.78873 6.4733C9.53051 6.7661 10.0741 7.01687 10.4194 7.22408C10.7648 7.43431 11.0411 7.60999 11.2498 7.75264C12.4706 7.41291 13.7321 7.24215 14.9992 7.24511C16.2891 7.24511 17.5384 7.41479 18.7502 7.75264L19.492 7.28415C20.0625 6.94157 20.6644 6.65397 21.2894 6.42525C21.9801 6.16397 22.5056 6.0934 22.872 6.21052C23.4576 7.68207 23.5087 9.00946 23.0267 10.1942C24.0553 11.3009 24.5703 12.6418 24.5703 14.2184C24.5703 15.3251 24.4367 16.3056 24.1694 17.157C23.9036 18.0099 23.5582 18.6931 23.1348 19.2082C22.6939 19.7365 22.1575 20.1772 21.5536 20.507C20.923 20.8584 20.3103 21.1122 19.7172 21.2683C19.0599 21.4366 18.3908 21.5546 17.7156 21.6212C18.3913 22.2068 18.7307 23.1303 18.7307 24.3931V29.063C18.7307 29.2837 18.7622 29.4624 18.8283 29.5991C18.8586 29.6649 18.9019 29.724 18.9556 29.7727C19.0092 29.8215 19.0722 29.8589 19.1406 29.8829C19.2847 29.9339 19.4109 29.967 19.522 29.979C19.6331 29.994 19.7923 29.9985 19.9995 29.9985H24.3751C25.9247 29.9985 27.2491 29.4489 28.3498 28.3483C29.4489 27.2491 30 25.9232 30 24.3736V5.62491C30 4.07528 29.4504 2.75089 28.3498 1.65023Z" fill="white"/>
</svg>
